<svg id="Layer_1" data-name="Layer 1" xmlns="http://www.w3.org/2000/svg" viewBox="0 0 270.69 36"><defs><style>.cls-1{fill:#fff;}</style></defs><title>Rice_University_Logo_Reverse_White</title><path class="cls-1" d="M248,38l-.75-.59c-2.49-2-3.23-2.94-3.23-4.46a3,3,0,0,1,3.26-3.07c2.44,0,3.16,1.11,3.32,1.4a4.42,4.42,0,0,1,.34,1.33c0,.21.06.34.21.34s.19-.18.19-.61c0-1.8.11-2.68.11-2.81s-.06-.19-.27-.19a4.1,4.1,0,0,1-.93-.13,10.25,10.25,0,0,0-2.47-.26c-3.37,0-5.49,1.93-5.49,4.77,0,1.81.64,3.45,3.45,5.76l1.19,1c2.29,1.89,3.06,2.95,3.06,4.78a3.55,3.55,0,0,1-3.8,3.53c-1.78,0-3.53-.74-3.93-2.71a4.62,4.62,0,0,1-.08-1c0-.21,0-.29-.18-.29s-.19.13-.21.42-.14,1.49-.14,2.82c0,.18,0,.32,0,.44a.17.17,0,0,1-.24.17,6.83,6.83,0,0,1-2.2-1.62c-1.54-1.65-3.34-4-5.52-6.79,2.39-2.21,3.22-4.17,3.22-6.13a4.6,4.6,0,0,0-1.84-3.61,8.13,8.13,0,0,0-4.85-1.17c-.82,0-2.84.08-3.13.08s-1.81-.08-3-.08c-.29,0-.43.05-.43.21s.11.16.22.16a5.29,5.29,0,0,1,.9.08c.87.18,1.09.61,1.14,1.51S226,32.87,226,37v4.67c0,2.55,0,4.65-.13,5.76-.11.77-.24,1.36-.77,1.46a3.67,3.67,0,0,1-.8.11c-.16,0-.21.08-.21.16s.13.21.43.21c.79,0,2.46-.08,2.49-.08s1.8.08,3.26.08c.3,0,.43-.08.43-.21s0-.16-.21-.16a10,10,0,0,1-1.2-.11c-.79-.1-.95-.69-1-1.46-.14-1.11-.14-3.21-.14-5.76v-.63c0-.13.06-.21.19-.21l3.26,0a.43.43,0,0,1,.35.16c.53.69,1.78,2.47,2.89,3.93,1.52,2,2.44,3.29,3.58,3.9a5.46,5.46,0,0,0,2.84.5H242a8.75,8.75,0,0,1,1.69.19,9.59,9.59,0,0,0,1.94.18,7.06,7.06,0,0,0,4-1.11,5.5,5.5,0,0,0,2.25-4.41C251.88,42.11,251.14,40.46,248,38Zm-14.92,1.56a3.41,3.41,0,0,1-2,.51,7.29,7.29,0,0,1-2.79-.43.35.35,0,0,1-.19-.32V30.64a.31.31,0,0,1,.22-.31,7.89,7.89,0,0,1,1.77-.16c2.84,0,4.6,2,4.6,5.3C234.71,37.49,234,38.93,233.09,39.56Z" transform="translate(-28.32 -23.33)"/><path class="cls-1" d="M155.21,29.32c-.79,0-2,.08-2.23.08s-1.62-.08-2.81-.08c-.29,0-.43.05-.43.21s.11.16.22.16a5.19,5.19,0,0,1,.9.08c.87.18,1.09.61,1.14,1.51s.05,1.59.05,5.73v3.32c0,2.73-.32,5-1.54,6.5a5.55,5.55,0,0,1-4.16,1.91,5.16,5.16,0,0,1-4-1.46c-1.14-1.08-2-2.73-2-6.55V37c0-4.14,0-4.88.05-5.73s.27-1.4,1-1.51a4.34,4.34,0,0,1,.67-.08c.1,0,.21-.05.21-.16s-.13-.21-.42-.21c-.8,0-2.39.08-2.63.08s-1.86-.08-3.05-.08c-.3,0-.43.05-.43.21s.11.16.21.16a5.4,5.4,0,0,1,.91.08c.87.18,1.08.61,1.14,1.51s0,1.59,0,5.73v3.88c0,3.87,1,5.73,2.31,7a8.12,8.12,0,0,0,5.47,1.88,7.75,7.75,0,0,0,5.46-2c2.13-1.89,2.45-5.07,2.45-7.94V37c0-4.14,0-4.88.05-5.73s.26-1.38,1-1.51a2.3,2.3,0,0,1,.66-.08c.11,0,.22-.05.22-.16S155.5,29.32,155.21,29.32Z" transform="translate(-28.32 -23.33)"/><path class="cls-1" d="M177.37,29.32c-1.09,0-2,.08-2.26.08s-1.56-.08-2.76-.08c-.32,0-.53,0-.53.18s0,.19.21.19a7.65,7.65,0,0,1,1.31.13c.82.21,1,.8,1,2.52l.29,13.49c-.85-.88-3.74-4.12-6.37-6.93-4.08-4.38-8-8.65-8.44-9.1-.26-.27-.71-.85-.93-.85s-.29.29-.29,1.32l0,15.21c0,2.41-.14,3.18-.8,3.37a3.94,3.94,0,0,1-1.09.16c-.13,0-.21.05-.21.16s.16.21.42.21c1.2,0,2.31-.08,2.55-.08s1.3.08,2.82.08c.31,0,.47-.05.47-.21s-.08-.16-.21-.16a6,6,0,0,1-1.33-.16c-.71-.21-1-.9-1-3.08l-.35-12.71c.85,1,3.85,4.3,6.93,7.62,2.81,3,6.63,6.92,6.93,7.19,1.4,1.41,1.72,1.7,1.93,1.7s.24-.14.24-1.89l.06-15.55c0-1.59.1-2.18,1-2.36a2.3,2.3,0,0,1,.63-.08c.19,0,.3-.08.3-.19S177.66,29.32,177.37,29.32Z" transform="translate(-28.32 -23.33)"/><path class="cls-1" d="M186.25,49a9.9,9.9,0,0,1-1.19-.11c-.8-.1-1-.69-1-1.46-.13-1.11-.13-3.21-.13-5.76V37c0-4.14,0-4.88.05-5.73s.27-1.38,1-1.51a4.11,4.11,0,0,1,.66-.08c.11,0,.21-.05.21-.16s-.13-.21-.42-.21c-.8,0-2.47.08-2.6.08s-1.81-.08-2.68-.08c-.3,0-.43.05-.43.21s.11.16.21.16a3.57,3.57,0,0,1,.83.11c.58.13.85.58.9,1.48s0,1.59,0,5.73v4.67c0,2.55,0,4.65-.13,5.76-.11.77-.24,1.36-.77,1.46a3.67,3.67,0,0,1-.8.11c-.16,0-.21.08-.21.16s.13.21.43.21c.79,0,2.46-.08,2.6-.08s1.8.08,3.26.08c.29,0,.43-.08.43-.21S186.41,49,186.25,49Z" transform="translate(-28.32 -23.33)"/><path class="cls-1" d="M207.69,29.32c-.77,0-1.91.08-2.07.08-.31,0-1.54-.08-2.6-.08-.42,0-.58.05-.58.21s.13.16.29.16a3.26,3.26,0,0,1,1,.11.65.65,0,0,1,.34.61,3.81,3.81,0,0,1-.23,1c-.59,1.92-4.14,11.18-5.68,14.73l-5.1-13.58a10.16,10.16,0,0,1-.72-2.21.54.54,0,0,1,.35-.53,3.29,3.29,0,0,1,1-.13c.18,0,.26-.05.26-.19s-.24-.18-.71-.18c-1,0-2.21.08-2.47.08s-1.83-.08-3.11-.08c-.42,0-.69,0-.69.18s.06.19.22.19a3.89,3.89,0,0,1,1,.11c.93.26,1.33.55,1.92,2l6.5,16.27c.5,1.27.63,1.64,1,1.64s.37-.42,1.12-2c.61-1.3,1.8-4.17,3.42-8.05,1.35-3.26,2.68-6.44,3-7.19.72-1.8,1.12-2.25,1.46-2.49a2.42,2.42,0,0,1,1.28-.32c.21,0,.31-.05.31-.19S208,29.32,207.69,29.32Z" transform="translate(-28.32 -23.33)"/><path class="cls-1" d="M220.93,45.8c-.13,0-.18.1-.24.4-.18,1.08-.5,1.62-1.19,1.91a7.67,7.67,0,0,1-2.55.29c-2.6,0-3-.35-3.08-2.18,0-.55,0-3.63,0-4.54V39.35a.17.17,0,0,1,.19-.19c.45,0,3.08.06,3.8.14,1,.1,1.27.55,1.38.93a2.83,2.83,0,0,1,.1.87c0,.13,0,.24.19.24s.18-.29.18-.5.06-1.17.11-1.7c.08-.88.21-1.33.21-1.49s-.05-.21-.13-.21-.21.13-.4.34-.61.32-1.25.38-3.87.05-4.22.05c-.13,0-.16-.08-.16-.27V30.62c0-.19.06-.27.16-.27.3,0,3.19,0,3.64.08,1.43.16,1.7.48,1.88.91a2.61,2.61,0,0,1,.16.95c0,.21.06.35.22.35s.15-.16.18-.3c0-.32.11-1.48.13-1.75.08-.74.22-1.06.22-1.25s0-.23-.11-.23-.24.1-.37.13a8,8,0,0,1-1.14.13c-.61,0-5.89,0-6.08,0s-1.8-.08-3-.08c-.29,0-.42.05-.42.21s.1.16.21.16a5.19,5.19,0,0,1,.9.08c.88.18,1.09.61,1.14,1.51s.06,1.59.06,5.73v4.67c0,2.55,0,4.65-.14,5.76-.1.77-.24,1.36-.77,1.46A3.58,3.58,0,0,1,210,49c-.16,0-.22.08-.22.16s.14.21.43.21c.8,0,2.47-.08,2.6-.08.77,0,2.55.16,6.55.16,1,0,1.25,0,1.44-.69s.34-2.36.34-2.57S221.09,45.8,220.93,45.8Z" transform="translate(-28.32 -23.33)"/><path class="cls-1" d="M261.35,49a10.08,10.08,0,0,1-1.19-.11c-.8-.1-1-.69-1-1.46-.14-1.11-.14-3.21-.14-5.76V37c0-4.14,0-4.88.06-5.73s.26-1.38,1-1.51a4.38,4.38,0,0,1,.66-.08c.11,0,.21-.05.21-.16s-.13-.21-.42-.21c-.8,0-2.47.08-2.6.08s-1.81-.08-2.68-.08c-.29,0-.43.05-.43.21s.11.16.22.16a3.5,3.5,0,0,1,.82.11c.58.13.85.58.9,1.48s.05,1.59.05,5.73v4.67c0,2.55,0,4.65-.13,5.76-.11.77-.24,1.36-.77,1.46a3.67,3.67,0,0,1-.8.11c-.15,0-.21.08-.21.16s.14.21.43.21c.79,0,2.47-.08,2.6-.08s1.8.08,3.26.08c.29,0,.43-.08.43-.21S261.51,49,261.35,49Z" transform="translate(-28.32 -23.33)"/><path class="cls-1" d="M278.79,29.13a12.65,12.65,0,0,1-2.63.27h-10c-.32,0-1.33-.06-2.1-.13a5.57,5.57,0,0,1-1.17-.32c-.1,0-.21.34-.26.5s-.58,2.5-.58,2.76,0,.24.13.24.18-.05.26-.27a5,5,0,0,1,.45-.82c.43-.64,1.07-.82,2.71-.85l3.93-.05V41.68c0,2.55,0,4.65-.13,5.76-.11.77-.24,1.36-.77,1.46a3.67,3.67,0,0,1-.8.11c-.16,0-.21.08-.21.16s.13.21.42.21c.8,0,2.47-.08,2.6-.08s1.81.08,3.27.08c.29,0,.42-.08.42-.21s-.05-.16-.21-.16A9.9,9.9,0,0,1,273,48.9c-.8-.1-1-.69-1-1.46-.13-1.11-.13-3.21-.13-5.76V30.46l3.34.05c2.55.06,3.16.67,3.27,1.46l0,.29c0,.38.08.45.22.45s.18-.1.18-.34.08-2.12.08-2.92C278.92,29.29,278.92,29.13,278.79,29.13Z" transform="translate(-28.32 -23.33)"/><path class="cls-1" d="M298.66,29.32c-.5,0-2.41.08-2.57.08s-1.06-.08-1.75-.08c-.27,0-.43.05-.43.16s.16.18.4.26.43.37.43.75a2.64,2.64,0,0,1-.45,1.35c-.54.87-3.91,6.69-4.41,7.8-.48-.77-4.46-7.62-4.88-8.38a2.21,2.21,0,0,1-.35-1,.54.54,0,0,1,.35-.48c.24-.1.4-.13.4-.24s-.06-.18-.35-.18c-1,0-2,.08-2.23.08s-2.12-.08-2.63-.08c-.24,0-.34.08-.34.18s.13.19.26.19a2.62,2.62,0,0,1,1.15.42,7.61,7.61,0,0,1,1.8,2c.93,1.38,4.48,7.22,4.67,7.64a5.57,5.57,0,0,1,.61,2.79v2.28c0,.42,0,1.54-.08,2.65-.05.77-.29,1.36-.82,1.46a3.67,3.67,0,0,1-.8.11c-.16,0-.21.08-.21.16s.13.21.42.21c.8,0,2.47-.08,2.61-.08s1.8.08,3.26.08c.29,0,.42-.08.42-.21s-.05-.16-.21-.16a9.9,9.9,0,0,1-1.19-.11c-.8-.1-1-.69-1.09-1.46-.08-1.11-.08-2.23-.08-2.65V42.51a6.35,6.35,0,0,1,.4-2.66A85.33,85.33,0,0,1,296,31.41a5.1,5.1,0,0,1,1.4-1.35,2.6,2.6,0,0,1,1.22-.37c.22,0,.35-.08.35-.21S298.85,29.32,298.66,29.32Z" transform="translate(-28.32 -23.33)"/><path class="cls-1" d="M112.11,44.58c-.16,0-.21.1-.26.4a5.12,5.12,0,0,1-1,2.22c-1.07,1.09-2.63,1.33-4.62,1.33a9.58,9.58,0,0,1-9.58-9.71c0-2.71.45-5.07,2.39-6.93.93-.9,2.57-1.94,6.1-1.94a8.81,8.81,0,0,1,5.31,1.52,3.66,3.66,0,0,1,1.11,2.7c0,.38,0,.56.22.56s.21-.16.23-.56,0-1.85.08-2.73.14-1.27.14-1.49-.06-.26-.35-.29a23.56,23.56,0,0,1-2.71-.39,22.56,22.56,0,0,0-3.84-.32c-4.09,0-6.51,1.24-8.1,2.84a10.58,10.58,0,0,0-3,7.24,10.19,10.19,0,0,0,3.21,7.86c2.1,1.88,4.78,2.86,8.76,2.86a15.26,15.26,0,0,0,4.78-.61c.47-.21.53-.26.69-.77A28.47,28.47,0,0,0,112.3,45C112.3,44.76,112.25,44.58,112.11,44.58Z" transform="translate(-28.32 -23.33)"/><path class="cls-1" d="M126.36,45.8c-.13,0-.18.1-.24.4-.18,1.08-.5,1.62-1.19,1.91a7.67,7.67,0,0,1-2.55.29c-2.6,0-3-.35-3.08-2.18,0-.55,0-3.63,0-4.53V39.35a.17.17,0,0,1,.19-.19c.45,0,3.08.06,3.79.14,1,.1,1.28.55,1.38.93a2.59,2.59,0,0,1,.11.87c0,.13,0,.24.19.24s.18-.29.18-.5.06-1.17.11-1.7c.08-.88.21-1.33.21-1.49s0-.21-.13-.21-.21.13-.4.34-.61.32-1.25.38-3.87.05-4.22.05c-.13,0-.16-.08-.16-.27V30.62c0-.19.06-.27.16-.27.3,0,3.19,0,3.64.08,1.43.16,1.7.48,1.88.9a2.69,2.69,0,0,1,.16,1c0,.21.06.35.21.35s.16-.16.19-.3c0-.31.11-1.48.13-1.75.08-.74.22-1.06.22-1.25s0-.23-.11-.23-.24.1-.37.13a8,8,0,0,1-1.14.13c-.61,0-5.89,0-6.08,0s-1.81-.08-3-.08c-.29,0-.42.05-.42.21s.1.16.21.16a5.19,5.19,0,0,1,.9.08c.88.18,1.09.61,1.14,1.51s0,1.59,0,5.73v4.68c0,2.54,0,4.64-.13,5.75-.1.77-.24,1.36-.77,1.46a3.58,3.58,0,0,1-.79.11c-.16,0-.22.08-.22.16s.14.21.43.21c.79,0,2.47-.08,2.6-.08.77,0,2.55.16,6.55.16,1,0,1.25,0,1.44-.69s.34-2.36.34-2.57S126.52,45.8,126.36,45.8Z" transform="translate(-28.32 -23.33)"/><path class="cls-1" d="M92.47,49a9.9,9.9,0,0,1-1.19-.11c-.8-.1-1-.69-1-1.46-.13-1.11-.13-3.21-.13-5.75V37c0-4.14,0-4.88,0-5.73s.27-1.38,1-1.51a3.54,3.54,0,0,1,.7-.08.17.17,0,0,0,.17-.17c0-.15-.14-.2-.42-.2-.8,0-2.47.08-2.6.08s-1.81-.08-2.68-.08c-.3,0-.43.05-.43.21s.11.16.21.16a3.57,3.57,0,0,1,.83.11c.58.13.85.58.9,1.48s0,1.59,0,5.73v4.68c0,2.54,0,4.64-.13,5.75a3.61,3.61,0,0,1-.25,1,.69.69,0,0,1-.6.38,2.42,2.42,0,0,1-1-.17A6.49,6.49,0,0,1,83.63,47c-1.54-1.65-3.35-4-5.52-6.79,2.38-2.21,3.21-4.17,3.21-6.13a4.63,4.63,0,0,0-1.83-3.61,8.18,8.18,0,0,0-4.86-1.17c-.82,0-2.84.08-3.13.08-.14,0-1.81-.08-3-.08-.29,0-.43.05-.43.21s.11.16.22.16a5.19,5.19,0,0,1,.9.08c.87.18,1.09.61,1.14,1.51s0,1.59,0,5.73v4.68c0,2.54,0,4.64-.13,5.75-.11.77-.24,1.36-.77,1.46a3.67,3.67,0,0,1-.8.11c-.15,0-.21.08-.21.16s.13.21.43.21c.79,0,2.46-.08,2.49-.08s1.81.08,3.27.08c.29,0,.42-.08.42-.21s0-.16-.21-.16a10,10,0,0,1-1.2-.11c-.79-.1-1-.69-1-1.46-.13-1.11-.13-3.21-.13-5.75v-.64c0-.13,0-.21.18-.21l3.27,0a.41.41,0,0,1,.34.16c.53.69,1.78,2.47,2.89,3.93,1.52,2,2.45,3.29,3.59,3.9a5.42,5.42,0,0,0,2.84.5h.77c.8,0,2.47-.08,2.61-.08s1.8.08,3.26.08c.29,0,.42-.08.42-.21S92.63,49,92.47,49Zm-15-9.45a3.39,3.39,0,0,1-2,.51,7.29,7.29,0,0,1-2.79-.43.34.34,0,0,1-.18-.32V30.65a.32.32,0,0,1,.21-.32,7.93,7.93,0,0,1,1.78-.16c2.84,0,4.59,2,4.59,5.31C79.09,37.49,78.4,38.93,77.47,39.56Z" transform="translate(-28.32 -23.33)"/><path class="cls-1" d="M44.15,48.45a.46.46,0,0,0,.44-.29s0-.07-.06,0a.38.38,0,0,1-.24.08.37.37,0,0,1-.34-.34.34.34,0,0,1,.09-.24,0,0,0,0,0,0-.06.45.45,0,0,0-.3.44A.45.45,0,0,0,44.15,48.45Z" transform="translate(-28.32 -23.33)"/><path class="cls-1" d="M52.29,28.34a.45.45,0,0,0,.44-.29s0-.07,0,0a.41.41,0,0,1-.25.08.36.36,0,0,1-.33-.34.38.38,0,0,1,.08-.24,0,0,0,0,0,0-.06.48.48,0,0,0-.31.45A.46.46,0,0,0,52.29,28.34Z" transform="translate(-28.32 -23.33)"/><path class="cls-1" d="M34.89,28.34a.46.46,0,0,0,.44-.29s0-.07,0,0a.41.41,0,0,1-.25.08.36.36,0,0,1-.33-.34.33.33,0,0,1,.08-.24s0-.07,0-.06a.47.47,0,0,0-.3.45A.46.46,0,0,0,34.89,28.34Z" transform="translate(-28.32 -23.33)"/><path class="cls-1" d="M49.87,28.34a.46.46,0,0,0,.44-.29s0-.07-.06,0a.36.36,0,0,1-.24.08.35.35,0,0,1-.33-.34.33.33,0,0,1,.08-.24s0-.07,0-.06a.47.47,0,0,0-.3.45A.46.46,0,0,0,49.87,28.34Z" transform="translate(-28.32 -23.33)"/><path class="cls-1" d="M57.25,25.34a49.85,49.85,0,0,0-14-2c-.91,0-1.82,0-2.72.08a49.56,49.56,0,0,0-11.3,1.93,1.25,1.25,0,0,0-.89,1.2v12.8A21.22,21.22,0,0,0,41.58,59a4.38,4.38,0,0,0,3.3,0A21.22,21.22,0,0,0,58.14,39.34V26.54A1.25,1.25,0,0,0,57.25,25.34ZM54.45,30a3,3,0,0,1,.46.88,11.49,11.49,0,0,1,.43,1.64,0,0,0,0,1,0,0l0,0h0a2.81,2.81,0,0,1-.78-.63,3.54,3.54,0,0,1-.35-.51,2.35,2.35,0,0,1-.23-.57.24.24,0,0,0-.22-.16h0a.08.08,0,0,0-.07.1,3.18,3.18,0,0,0,.68,1.33,3.21,3.21,0,0,0,.83.69.71.71,0,0,1,.37.53h0l0,.2s0,0,0,0l0,0h0a3.69,3.69,0,0,1-.75-.36,3.4,3.4,0,0,1-.86-.74,3.55,3.55,0,0,1-.67-1.12.23.23,0,0,0-.21-.15h-.07a.1.1,0,0,0,0,0,.09.09,0,0,0,0,.07,4.12,4.12,0,0,0,.77,1.35,3.9,3.9,0,0,0,.93.79,4.41,4.41,0,0,0,.65.33.74.74,0,0,1,.46.53.83.83,0,0,0,0,.15s0,0,0,0h0A4.71,4.71,0,0,1,54.32,34a4.83,4.83,0,0,1-1.12-.94,4.67,4.67,0,0,1-.82-1.37,4.74,4.74,0,0,1-.29-1.63v-.22a.11.11,0,0,1,.1-.09h.23a1.77,1.77,0,0,0,.61-.1,1.83,1.83,0,0,0,.55-.3.21.21,0,0,1,.1,0,.12.12,0,0,1,.09,0A2.84,2.84,0,0,1,54.45,30Zm-.07,4.51a.41.41,0,0,1-.05.09,1.64,1.64,0,0,1-.14.22.05.05,0,0,1-.06,0h0a5.68,5.68,0,0,1-.94-.36l0,0v0a3.91,3.91,0,0,0,.27-.67l0,0h0a4.72,4.72,0,0,0,.86.6A.11.11,0,0,1,54.38,34.53Zm-1.89.66h.14a.17.17,0,0,1,.16.12l0,.16v0h-.11l-.13,0h0a.3.3,0,0,1-.11-.06.14.14,0,0,0-.14,0l-.06,0-.09,0h-.41a.05.05,0,0,1-.05-.08v0s0,0,0,0a.21.21,0,0,0-.28.12h0a.08.08,0,0,1-.06,0h-.11s-.06,0-.05-.08l0-.07h0a.25.25,0,0,1,.23-.16h.18a.63.63,0,0,0,.53-.29,6.1,6.1,0,0,0,.37-.72.06.06,0,0,1,.08,0l.12.08a.19.19,0,0,1,.07.26,1,1,0,0,1-.08.14,3.17,3.17,0,0,1-.23.36l-.07.11A.06.06,0,0,0,52.49,35.19Zm-.85.31Zm-1.14-.16a.21.21,0,0,0-.28.12h0a.07.07,0,0,1-.06,0h-.1a.06.06,0,0,1-.06-.08l0-.07a.25.25,0,0,1,.23-.16h.18A.62.62,0,0,0,51,34.9a5.62,5.62,0,0,0,.34-.64.05.05,0,0,1,.08,0l.12.07a.19.19,0,0,1,.07.26,2.07,2.07,0,0,1-.15.25.52.52,0,0,1-.2.19.56.56,0,0,0-.22.26l0,.11,0,.09h0a.05.05,0,0,1,0,0h-.31s-.08,0-.06-.08v0S50.52,35.34,50.5,35.34Zm-.07.16ZM52.07,34a1.21,1.21,0,0,1,0-.14s0,0,.05,0l.18.14a0,0,0,0,1,0,0s0,.07,0,.11a0,0,0,0,1,0,0L52.08,34A0,0,0,0,1,52.07,34Zm.54-.17a4.16,4.16,0,0,1-.39-.32,4.42,4.42,0,0,1-.77-.9.21.21,0,0,0-.18-.1.19.19,0,0,0-.1,0l-.05.06a.1.1,0,0,0,0,.07,4.71,4.71,0,0,0,.57.76.62.62,0,0,1,.14.28.58.58,0,0,1,0,.32l0,.1,0,0h0a4.4,4.4,0,0,1-.93-.67,4.93,4.93,0,0,1-.74-.9,4.6,4.6,0,0,1-.71-2.45,1.93,1.93,0,0,1,0-.24.09.09,0,0,1,.09-.09h0l.3,0h.64a.08.08,0,0,0,.09-.08.22.22,0,0,0-.22-.22h-.51a1,1,0,0,1-.24,0,.29.29,0,0,1-.24-.25,1,1,0,0,1,.08-.47s0,0,0,0h0a.93.93,0,0,0,.46.12.9.9,0,0,0,.4-.09h0a0,0,0,0,1,0,0,1.59,1.59,0,0,0,.07.2l.45,1a.28.28,0,0,0,.24.15.27.27,0,0,0,.24-.15l.45-1a.8.8,0,0,0,.07-.2,0,0,0,0,1,0,0h0a.94.94,0,0,0,.86,0h0s0,0,0,0a1,1,0,0,1,.08.47.27.27,0,0,1-.24.25.93.93,0,0,1-.23,0h-.51a.22.22,0,0,0-.22.22.07.07,0,0,0,.08.08h0s0,0,0,0a2.62,2.62,0,0,0,0,.28A4.83,4.83,0,0,0,53,33.27h0a.59.59,0,0,1,.11.57A1.11,1.11,0,0,1,53,34a0,0,0,0,1,0,0h0A2.82,2.82,0,0,1,52.61,33.79Zm-4-4.25a.09.09,0,0,1,.14-.07l.05,0a.48.48,0,0,1,.24.42s0,.11,0,.16a4.88,4.88,0,0,0,.57,2.28.07.07,0,0,1,0,.09.07.07,0,0,1-.09,0,3.72,3.72,0,0,1-.33-.45,3.8,3.8,0,0,1-.57-2A3.4,3.4,0,0,1,48.65,29.54Zm-.3-.94a.34.34,0,0,1,0-.24.4.4,0,0,1,.12-.21,1.1,1.1,0,0,1,.45-.21h0s0,0,0,0a.85.85,0,0,0,.12.38.35.35,0,0,1,0,.3,1.35,1.35,0,0,0-.09.55s0,0,0,0h0A1.65,1.65,0,0,1,48.35,28.6Zm.86-.71a.67.67,0,1,1,1.34,0,.67.67,0,1,1-1.34,0Zm1.39.74a.49.49,0,0,1,1,0,.42.42,0,0,1,0,.22l-.39.81a.05.05,0,0,1-.1,0l-.39-.81h0A.54.54,0,0,1,50.6,28.63Zm1-.74a.67.67,0,1,1,1.34,0,.67.67,0,0,1-1.34,0Zm1.5.46a1.21,1.21,0,0,0,.12-.38,0,0,0,0,1,0,0h0a1.19,1.19,0,0,1,.44.2.34.34,0,0,1,.13.22.33.33,0,0,1,0,.24,1.65,1.65,0,0,1-.59.64h0s0,0,0,0a1.35,1.35,0,0,0-.09-.55A.39.39,0,0,1,53.13,28.35Zm.46-1.44h0a.16.16,0,0,1,.13.08,1.5,1.5,0,0,1,.28.9h0a0,0,0,0,1,0,0h0a1.16,1.16,0,0,0-.53-.27.37.37,0,0,1-.26-.21,1,1,0,0,0-.2-.25v0s0,0,0,0a.91.91,0,0,1,.58-.23Zm-1.52-.34a.93.93,0,0,1,.43-.22h.17l.18,0a1.69,1.69,0,0,1,.45.21s0,0,0,0,0,0,0,0a1.24,1.24,0,0,0-.5.25.35.35,0,0,1-.22.08H52.5a.65.65,0,0,0-.2,0,1,1,0,0,0-.47.12s0,0,0,0l0,0s0,0,0,0A1.29,1.29,0,0,1,52.07,26.57Zm-1.56-.08h0a1.78,1.78,0,0,1,.45.37.16.16,0,0,0,.11.05.17.17,0,0,0,.12-.05,1.58,1.58,0,0,1,.44-.37h0s0,0,0,0,0,0,0,0a1.07,1.07,0,0,0-.13.21,2.14,2.14,0,0,0-.22,1.09v0h0l-.21,0a.76.76,0,0,0-.21,0h0s0,0,0,0,0,0,0,0a2.63,2.63,0,0,0-.05-.57,1.77,1.77,0,0,0-.17-.52,1.1,1.1,0,0,0-.14-.21s0,0,0,0Zm-1.63.08a1.85,1.85,0,0,1,.45-.21l.18,0h.18a1,1,0,0,1,.42.22,1.29,1.29,0,0,1,.29.45s0,0,0,0l0,0h0a.94.94,0,0,0-.47-.12.68.68,0,0,0-.2,0h-.07a.35.35,0,0,1-.22-.08,1.13,1.13,0,0,0-.5-.25l0,0A.05.05,0,0,1,48.88,26.57Zm-.42.42a.16.16,0,0,1,.14-.08h0a.94.94,0,0,1,.59.23.05.05,0,0,1,0,.06.92.92,0,0,0-.19.25.41.41,0,0,1-.27.21,1.27,1.27,0,0,0-.53.27h0a0,0,0,0,1,0,0h0A1.57,1.57,0,0,1,48.46,27ZM37.05,30a3.21,3.21,0,0,1,.46.88,13,13,0,0,1,.43,1.64,0,0,0,0,1,0,0l0,0h0a2.86,2.86,0,0,1-1.12-1.14,2.35,2.35,0,0,1-.23-.57.24.24,0,0,0-.22-.16h-.05a.1.1,0,0,0,0,0,.13.13,0,0,0,0,.06,3.18,3.18,0,0,0,.68,1.33,3.21,3.21,0,0,0,.83.69.71.71,0,0,1,.37.53h0l0,.2s0,0,0,0l0,0h0a3.45,3.45,0,0,1-.75-.36,3.63,3.63,0,0,1-.87-.74,3.72,3.72,0,0,1-.66-1.12.24.24,0,0,0-.21-.15h-.07a.1.1,0,0,0,0,0,.09.09,0,0,0,0,.07,4,4,0,0,0,.77,1.35,3.9,3.9,0,0,0,.93.79,4,4,0,0,0,.65.33.77.77,0,0,1,.46.53.83.83,0,0,0,0,.15s0,0,0,0h0a4.63,4.63,0,0,1-2.46-1.48A4.67,4.67,0,0,1,35,31.71a4.74,4.74,0,0,1-.29-1.63v-.22a.1.1,0,0,1,.1-.09H35a1.83,1.83,0,0,0,.62-.1,2,2,0,0,0,.55-.3.18.18,0,0,1,.1,0,.14.14,0,0,1,.09,0A2.84,2.84,0,0,1,37.05,30ZM37,34.53a.41.41,0,0,1,0,.09,1.64,1.64,0,0,1-.14.22.05.05,0,0,1-.06,0h0a5.68,5.68,0,0,1-.94-.36l0,0v0a3.91,3.91,0,0,0,.27-.67l0,0h0a4.72,4.72,0,0,0,.86.6A.11.11,0,0,1,37,34.53Zm-1.89.66h.14a.17.17,0,0,1,.16.12l0,.16s0,0,0,0h-.1l-.13,0h0a.24.24,0,0,1-.11-.06.14.14,0,0,0-.14,0l-.06,0-.09,0h-.41a.06.06,0,0,1-.06-.08l0,0s0,0,0,0a.21.21,0,0,0-.28.12h0a.08.08,0,0,1-.06,0h-.11a.05.05,0,0,1,0-.08l0-.07h0a.24.24,0,0,1,.23-.16h.18a.64.64,0,0,0,.53-.29,4.84,4.84,0,0,0,.36-.72.07.07,0,0,1,.09,0l.12.08a.19.19,0,0,1,.07.26l-.08.14a3.17,3.17,0,0,1-.23.36L35,35.1A.06.06,0,0,0,35.09,35.19Zm-.85.31Zm-1.14-.16a.21.21,0,0,0-.28.12h0a.07.07,0,0,1-.06,0h-.1a.06.06,0,0,1-.06-.08l0-.07a.25.25,0,0,1,.23-.16H33a.62.62,0,0,0,.53-.29,5.62,5.62,0,0,0,.34-.64.05.05,0,0,1,.08,0,.41.41,0,0,1,.11.07.19.19,0,0,1,.08.26l-.15.25a.52.52,0,0,1-.2.19.51.51,0,0,0-.22.26l0,.11,0,.09h0a.05.05,0,0,1-.06,0h-.31a.05.05,0,0,1,0-.08v0S33.12,35.34,33.1,35.34ZM33,35.5h0ZM34.67,34s0-.09,0-.14a0,0,0,0,1,.06,0L35,34a0,0,0,0,1,0,0s0,.07,0,.11a0,0,0,0,1-.05,0L34.68,34A0,0,0,0,1,34.67,34Zm.54-.17c-.14-.1-.27-.21-.4-.32a4.71,4.71,0,0,1-.76-.9.21.21,0,0,0-.18-.1.23.23,0,0,0-.11,0l0,.06a.17.17,0,0,0,0,.07,4.77,4.77,0,0,0,.58.76.62.62,0,0,1,.14.28.58.58,0,0,1,0,.32l0,.1,0,0h0a4.4,4.4,0,0,1-.93-.67,4.55,4.55,0,0,1-.74-.9A4.6,4.6,0,0,1,32,30.08a1.93,1.93,0,0,1,0-.24.09.09,0,0,1,.09-.09h0l.3,0H33a.07.07,0,0,0,.08-.08.21.21,0,0,0-.21-.22h-.51a1,1,0,0,1-.24,0,.28.28,0,0,1-.24-.25,1,1,0,0,1,.08-.47s0,0,0,0h0a.93.93,0,0,0,.46.12.9.9,0,0,0,.4-.09h0a0,0,0,0,1,0,0A1.59,1.59,0,0,0,33,29l.45,1a.27.27,0,0,0,.48,0l.45-1a1.59,1.59,0,0,0,.07-.2,0,0,0,0,1,0,0h0a.9.9,0,0,0,.4.09.93.93,0,0,0,.46-.12h0s0,0,0,0a1,1,0,0,1,.08.47.28.28,0,0,1-.24.25,1,1,0,0,1-.24,0H34.5a.21.21,0,0,0-.21.22.07.07,0,0,0,.08.08h0s0,0,0,0a2.62,2.62,0,0,0,0,.28,4.82,4.82,0,0,0,.31,1.73,5,5,0,0,0,.87,1.46h0a.54.54,0,0,1,.14.27.52.52,0,0,1,0,.3l-.06.16a0,0,0,0,1,0,0h0A2.25,2.25,0,0,1,35.21,33.79Zm-4-4.25a.09.09,0,0,1,.14-.07l.05,0a.48.48,0,0,1,.24.42.86.86,0,0,0,0,.16,4.88,4.88,0,0,0,.57,2.28.06.06,0,0,1,0,.09.06.06,0,0,1-.08,0,3.72,3.72,0,0,1-.33-.45,3.8,3.8,0,0,1-.57-2A3.4,3.4,0,0,1,31.25,29.54ZM31,28.6a.34.34,0,0,1,0-.24.35.35,0,0,1,.12-.21,1,1,0,0,1,.45-.21h0a0,0,0,0,1,0,0,1.21,1.21,0,0,0,.12.38.32.32,0,0,1,0,.3,1.35,1.35,0,0,0-.09.55s0,0,0,0h0A1.58,1.58,0,0,1,31,28.6Zm.86-.71a.67.67,0,1,1,1.34,0,.67.67,0,0,1-1.34,0Zm1.39.74a.49.49,0,0,1,1,0,.42.42,0,0,1,0,.22l-.39.81a.05.05,0,0,1-.1,0l-.39-.81h0A.42.42,0,0,1,33.2,28.63Zm1-.74a.67.67,0,1,1,1.34,0,.67.67,0,0,1-1.34,0Zm1.5.46a1,1,0,0,0,.11-.38s0,0,0,0h0a1.19,1.19,0,0,1,.44.2.38.38,0,0,1,.13.22.33.33,0,0,1,0,.24,1.65,1.65,0,0,1-.59.64h0s0,0,0,0a1.35,1.35,0,0,0-.09-.55A.32.32,0,0,1,35.73,28.35Zm.45-1.44h0a.16.16,0,0,1,.13.08,1.57,1.57,0,0,1,.28.9h0a0,0,0,0,1,0,0h0a1.21,1.21,0,0,0-.53-.27.41.41,0,0,1-.27-.21.76.76,0,0,0-.19-.25v0s0,0,0,0a.94.94,0,0,1,.59-.23Zm-1.51-.34a.93.93,0,0,1,.43-.22h.17l.18,0a1.85,1.85,0,0,1,.45.21s0,0,0,0,0,0,0,0a1.13,1.13,0,0,0-.5.25.35.35,0,0,1-.22.08H35.1a.68.68,0,0,0-.2,0,1,1,0,0,0-.47.12h0l0,0s0,0,0,0A1.29,1.29,0,0,1,34.67,26.57Zm-1.56-.08h0a1.78,1.78,0,0,1,.45.37.15.15,0,0,0,.22,0,1.78,1.78,0,0,1,.45-.37h0s0,0,0,0,0,0,0,0a1.07,1.07,0,0,0-.13.21A2.14,2.14,0,0,0,34,27.85v0h0a.75.75,0,0,0-.42,0h0v0a2.14,2.14,0,0,0-.22-1.09,1.07,1.07,0,0,0-.13-.21s0,0,0,0S33.1,26.49,33.11,26.49Zm-1.63.08a1.85,1.85,0,0,1,.45-.21l.18,0h.17a.93.93,0,0,1,.43.22A1.29,1.29,0,0,1,33,27s0,0,0,0l0,0h0a1,1,0,0,0-.47-.12.68.68,0,0,0-.2,0h-.07a.35.35,0,0,1-.22-.08,1.13,1.13,0,0,0-.5-.25s0,0,0,0S31.46,26.58,31.48,26.57Zm-.42.42a.16.16,0,0,1,.13-.08h0a.94.94,0,0,1,.59.23s0,0,0,0v0a1,1,0,0,0-.2.25.37.37,0,0,1-.26.21,1.21,1.21,0,0,0-.53.27h0a0,0,0,0,1,0,0h0A1.57,1.57,0,0,1,31.06,27Zm9,21.06s0,0,0,0v0a1.56,1.56,0,0,1,.27-.89.17.17,0,0,1,.14-.08h0a.91.91,0,0,1,.58.23,0,0,0,0,1,0,0s0,0,0,0a.92.92,0,0,0-.19.25.42.42,0,0,1-.26.21,1.16,1.16,0,0,0-.53.27Zm5.19-.28a.42.42,0,0,1-.26-.21.92.92,0,0,0-.19-.25,0,0,0,0,1,0-.06A.91.91,0,0,1,45.4,47h0a.16.16,0,0,1,.14.08,1.57,1.57,0,0,1,.28.89v0a0,0,0,0,1,0,0h0A1.25,1.25,0,0,0,45.26,47.77Zm.46.7a.34.34,0,0,1,0,.24,1.62,1.62,0,0,1-.58.64h-.05a0,0,0,0,1,0,0,1.17,1.17,0,0,0-.08-.55.35.35,0,0,1,0-.3.85.85,0,0,0,.12-.38s0,0,0,0h0a1.16,1.16,0,0,1,.45.2A.45.45,0,0,1,45.72,48.47Zm-.57-1.72a1.22,1.22,0,0,0-.51.25.32.32,0,0,1-.21.08h-.08a.62.62,0,0,0-.19,0,.94.94,0,0,0-.47.12h0s0,0,0,0a0,0,0,0,1,0,0,1.48,1.48,0,0,1,.3-.45.9.9,0,0,1,.42-.22h.18a.55.55,0,0,1,.18,0,1.85,1.85,0,0,1,.45.21s0,0,0,0Zm-1,.57a.68.68,0,1,1-.67.67A.68.68,0,0,1,44.16,47.32Zm-.61-.66a1.93,1.93,0,0,0-.13.21,2.13,2.13,0,0,0-.18.52,2.64,2.64,0,0,0,0,.57,0,0,0,0,1,0,0h0A.76.76,0,0,0,43,48a.71.71,0,0,0-.21,0h0a0,0,0,0,1,0,0,2.14,2.14,0,0,0-.22-1.09,1.07,1.07,0,0,0-.13-.21.08.08,0,0,1,0,0l0,0h0a1.62,1.62,0,0,1,.45.37A.17.17,0,0,0,43,47a.16.16,0,0,0,.11-.05,1.78,1.78,0,0,1,.45-.37h0l0,0S43.57,46.64,43.55,46.66Zm-.11,2.08a.54.54,0,0,1,0,.22l-.39.81a.06.06,0,0,1-.11,0L42.5,49h0a.54.54,0,0,1,0-.22.5.5,0,0,1,1,0Zm-1-.75a.68.68,0,1,1-.67-.67A.69.69,0,0,1,42.41,48Zm-.15-.83a.05.05,0,0,1,0,0h0a1,1,0,0,0-.47-.12.65.65,0,0,0-.2,0h-.08a.32.32,0,0,1-.21-.08,1.22,1.22,0,0,0-.51-.25l0,0s0,0,0,0a1.85,1.85,0,0,1,.45-.21.58.58,0,0,1,.19,0h.17a.85.85,0,0,1,.42.22,1.48,1.48,0,0,1,.3.45ZM40.2,48.71a.5.5,0,0,1,0-.24.33.33,0,0,1,.13-.21,1,1,0,0,1,.45-.21h0a0,0,0,0,1,0,0,.85.85,0,0,0,.12.38.39.39,0,0,1,0,.3,1.07,1.07,0,0,0-.09.55,0,0,0,0,1,0,0h-.05A1.73,1.73,0,0,1,40.2,48.71Zm1.26,3.85a.05.05,0,0,1-.08,0,3.75,3.75,0,0,1-.9-2.44c0-.15,0-.3,0-.45a.1.1,0,0,1,.15-.07l0,0a.43.43,0,0,1,.24.42v.16a4.87,4.87,0,0,0,.56,2.28A.06.06,0,0,1,41.46,52.56Zm.82,3Zm.54-.13,0,.09h0a.05.05,0,0,1-.06,0h-.31a.06.06,0,0,1-.06-.08l0,0s0,0,0,0a.21.21,0,0,0-.28.12h0a.08.08,0,0,1-.06,0h-.11a.05.05,0,0,1,0-.08l0-.07a.24.24,0,0,1,.23-.16h.18a.64.64,0,0,0,.53-.29,5.54,5.54,0,0,0,.33-.64.06.06,0,0,1,.09,0l.11.06a.2.2,0,0,1,.07.27l-.14.25a.48.48,0,0,1-.21.19.54.54,0,0,0-.21.26Zm.68.13Zm1.19-1a1,1,0,0,0-.08.14c-.08.13-.15.25-.23.36l-.08.11a.06.06,0,0,0,.05.09h.13a.16.16,0,0,1,.16.12l0,.16a0,0,0,0,1,0,0h-.11l-.12,0h0a.24.24,0,0,1-.11-.06.12.12,0,0,0-.14,0l-.06,0-.1,0h-.4a.06.06,0,0,1-.06-.08v0s0,0,0,0a.21.21,0,0,0-.28.12h0a.07.07,0,0,1-.06,0h-.1a.06.06,0,0,1-.06-.08l0-.07h0a.25.25,0,0,1,.24-.16h.17A.62.62,0,0,0,44,55a4.08,4.08,0,0,0,.37-.72.07.07,0,0,1,.09,0l.11.08A.19.19,0,0,1,44.69,54.6Zm-.77-.53s0-.09,0-.14a0,0,0,0,1,.06,0,1.41,1.41,0,0,0,.18.14.07.07,0,0,1,0,0,1.17,1.17,0,0,0,0,.11,0,0,0,0,1,0,0l-.19-.12S43.92,54.09,43.92,54.07Zm1-.11-.06.16s0,0,0,0h0a2.25,2.25,0,0,1-.36-.24,4.31,4.31,0,0,1-.4-.32,4.65,4.65,0,0,1-.76-.9.22.22,0,0,0-.18-.1.2.2,0,0,0-.11,0l0,.06a.09.09,0,0,0,0,.07,4.77,4.77,0,0,0,.58.76.62.62,0,0,1,.14.28.58.58,0,0,1,0,.32.3.3,0,0,0,0,.1l0,0h0a4.3,4.3,0,0,1-1.67-1.57,4.51,4.51,0,0,1-.71-2.45V50a.11.11,0,0,1,.1-.09h0l.3,0h.65a.08.08,0,0,0,.08-.08.22.22,0,0,0-.22-.22h-.51a.86.86,0,0,1-.23,0,.27.27,0,0,1-.24-.25,1,1,0,0,1,.07-.47l0,0h0a1,1,0,0,0,.87,0h0s0,0,0,0a.53.53,0,0,0,.07.2l.45,1a.26.26,0,0,0,.24.15.25.25,0,0,0,.23-.15l.46-1a.76.76,0,0,0,.06-.2s0,0,0,0h0a1,1,0,0,0,.41.09.93.93,0,0,0,.46-.12h0l0,0a1,1,0,0,1,.07.47.27.27,0,0,1-.23.25,1,1,0,0,1-.24,0h-.51a.22.22,0,0,0-.22.22.08.08,0,0,0,.08.08h0v0c0,.09,0,.19,0,.28A4.83,4.83,0,0,0,44,51.92a4.6,4.6,0,0,0,.87,1.46h0a.53.53,0,0,1,.13.27A.61.61,0,0,1,44.94,54Zm1.3.68a.41.41,0,0,0-.05.09l-.14.22s0,0-.06,0,0,0,0,0a5.36,5.36,0,0,1-.94-.36l0,0a0,0,0,0,1,0,0,4.9,4.9,0,0,0,.26-.67l0,0h0a5.53,5.53,0,0,0,.86.6A.1.1,0,0,1,46.24,54.64Zm1.32,0,0,0h0a4.66,4.66,0,0,1-1.35-.54,4.77,4.77,0,0,1-1.11-.94,4.46,4.46,0,0,1-.82-1.37,4.53,4.53,0,0,1-.3-1.63c0-.07,0-.14,0-.22a.09.09,0,0,1,.09-.09h.23a1.87,1.87,0,0,0,.62-.1,2,2,0,0,0,.55-.3.15.15,0,0,1,.1,0l.09,0a3.26,3.26,0,0,1,.68.66,3.21,3.21,0,0,1,.46.88,13,13,0,0,1,.43,1.64v0l0,0h0a3,3,0,0,1-.78-.63,2.83,2.83,0,0,1-.34-.51,2.87,2.87,0,0,1-.24-.57.22.22,0,0,0-.21-.16h0a.1.1,0,0,0-.05,0,.07.07,0,0,0,0,.06,3.07,3.07,0,0,0,.68,1.33,2.91,2.91,0,0,0,.83.69.73.73,0,0,1,.37.53h0l0,.2s0,0,0,0l0,0h0a3.69,3.69,0,0,1-.75-.36,3.79,3.79,0,0,1-.86-.74A3.75,3.75,0,0,1,45,51.5a.22.22,0,0,0-.21-.15h-.06a.1.1,0,0,0-.05,0,.17.17,0,0,0,0,.07,4.12,4.12,0,0,0,.77,1.35,4,4,0,0,0,.94.79,3.61,3.61,0,0,0,.65.33.77.77,0,0,1,.46.53l0,.15S47.56,54.65,47.56,54.65Zm6.2-3.77c-.13.2-.27.39-.41.58L43.23,41.34,33.11,51.46c-.14-.19-.28-.38-.41-.58A21.22,21.22,0,0,1,31.56,49L43.23,37.34,54.9,49A21.22,21.22,0,0,1,53.76,50.88Zm1.8-3.21L43.23,35.34,30.9,47.67a19.16,19.16,0,0,1-1-3L43.23,31.34,56.61,44.72A19.16,19.16,0,0,1,55.56,47.67Z" transform="translate(-28.32 -23.33)"/><path class="cls-1" d="M32.47,28.34a.46.46,0,0,0,.44-.29s0-.07-.06,0a.38.38,0,0,1-.24.08.35.35,0,0,1-.33-.34.33.33,0,0,1,.08-.24,0,0,0,0,0,0-.06.47.47,0,0,0-.3.45A.45.45,0,0,0,32.47,28.34Z" transform="translate(-28.32 -23.33)"/><path class="cls-1" d="M42.11,48.12a.41.41,0,0,1-.24.08.37.37,0,0,1-.34-.34.34.34,0,0,1,.09-.24,0,0,0,0,0,0-.06.45.45,0,0,0-.3.44.45.45,0,0,0,.44.45.46.46,0,0,0,.45-.29S42.14,48.09,42.11,48.12Z" transform="translate(-28.32 -23.33)"/></svg>